<svg width="60" height="60" viewBox="0 0 60 60" fill="none" xmlns="http://www.w3.org/2000/svg">
<path d="M30 0C13.4395 0 0 13.4395 0 30C0 46.5605 13.4395 60 30 60C46.5605 60 60 46.5605 60 30C60 13.4395 46.5605 0 30 0Z" fill="#1ED760"/>
<path d="M43.9975 18.1706C43.5154 18.2258 43.205 18.1392 42.7602 17.9458C35.7089 14.7603 23.799 15.164 16.4036 18.1696C16.0804 18.3005 15.6802 18.4965 15.2352 18.5474C14.0114 18.6873 12.9659 17.8395 12.8249 16.6064C12.6808 15.3456 13.3779 14.5427 14.1848 14.2063C17.3389 12.8783 20.9397 12.0064 24.9169 11.5517C31.6847 10.778 38.938 11.3763 44.4659 13.8061C45.2367 14.1407 45.7753 14.6614 45.9014 15.7646C46.0455 17.0255 45.1286 18.0413 43.9975 18.1706ZM41.9312 25.5636C41.4491 25.6187 41.1003 25.4426 40.7464 25.3046C34.5599 22.5368 25.7615 22.1433 18.3145 25.1079C17.8832 25.2793 17.656 25.4274 17.2388 25.4751C16.2468 25.5885 15.348 24.8741 15.2346 23.8822C15.1212 22.8902 15.528 22.1768 16.4522 21.7988C18.9468 20.781 21.5183 19.9423 25.375 19.5014C31.3918 18.8135 37.3752 19.6415 42.2667 21.8436C43.0685 22.2027 43.4309 22.7436 43.5231 23.5502C43.6283 24.5525 42.9417 25.4481 41.9312 25.5636ZM40.1326 31.9304C39.7433 31.9749 39.4884 31.882 39.1025 31.7101C32.9189 28.8856 26.1713 29.5068 19.6799 31.6295C19.329 31.7636 18.8731 31.966 18.6043 31.9967C17.705 32.0995 17.0578 31.4503 16.972 30.6994C16.8628 29.7445 17.3764 29.2256 18.0548 28.9977C25.4558 26.4516 33.2324 25.7128 40.3044 28.9147C40.9113 29.2116 41.2821 29.498 41.3786 30.3416C41.475 31.1853 40.8836 31.8446 40.1326 31.9304Z" fill="black"/>
<path fill-rule="evenodd" clip-rule="evenodd" d="M18.9678 43.7419C20.4407 39.0306 24.8227 35.6129 30 35.6129C35.1774 35.6129 39.5593 39.0306 41.0323 43.7419C39.5593 48.4533 35.1774 51.871 30 51.871C24.8227 51.871 20.4407 48.4533 18.9678 43.7419ZM34.6247 43.7419C34.6247 44.9739 34.1375 46.1554 33.2702 47.0266C32.4029 47.8977 31.2266 48.3871 30 48.3871C28.7735 48.3871 27.5972 47.8977 26.7299 47.0266C25.8626 46.1554 25.3753 44.9739 25.3753 43.7419C25.3753 42.51 25.8626 41.3285 26.7299 40.4573C27.5972 39.5862 28.7735 39.0968 30 39.0968C31.2266 39.0968 32.4029 39.5862 33.2702 40.4573C34.1375 41.3285 34.6247 42.51 34.6247 43.7419Z" fill="black"/>
</svg>
