<svg width="57" height="57" viewBox="0 0 57 57" fill="none" xmlns="http://www.w3.org/2000/svg">
<path fill-rule="evenodd" clip-rule="evenodd" d="M28.5 0C12.7675 0 0 12.7675 0 28.5C0 44.2325 12.7675 57 28.5 57C44.2325 57 57 44.2325 57 28.5C57 12.7675 44.2325 0 28.5 0ZM41.7977 17.2621C41.3397 17.3144 41.0448 17.2322 40.6222 17.0485C33.9235 14.0223 22.6091 14.4057 15.5834 17.2611C15.5325 17.2817 15.4795 17.3041 15.4247 17.3272L15.4246 17.3272C15.149 17.4435 14.826 17.5797 14.4735 17.62C13.3109 17.7529 12.3176 16.9475 12.1837 15.7761C12.0468 14.5783 12.7091 13.8155 13.4755 13.4959C16.472 12.2343 19.8928 11.4061 23.6711 10.9741C30.1004 10.239 36.9911 10.8075 42.2426 13.1158C42.9749 13.4336 43.4865 13.9283 43.6063 14.9764C43.7433 16.1742 42.8722 17.1392 41.7977 17.2621ZM39.8347 24.2854C39.4332 24.3313 39.1291 24.2084 38.8337 24.0891C38.792 24.0723 38.7506 24.0555 38.7091 24.0393C32.8319 21.4099 24.4735 21.0361 17.3988 23.8525C17.2904 23.8955 17.1957 23.937 17.1075 23.9756L17.1075 23.9757C16.8623 24.083 16.6684 24.168 16.3769 24.2013C15.4345 24.309 14.5806 23.6304 14.4729 22.688C14.3652 21.7456 14.7517 21.0679 15.6296 20.7088C17.9995 19.7419 20.4424 18.9451 24.1062 18.5263C29.8222 17.8728 35.5065 18.6594 40.1533 20.7514C40.9151 21.0926 41.2593 21.6064 41.3469 22.3726C41.4469 23.3248 40.7947 24.1756 39.8347 24.2854ZM38.126 30.3339C37.7561 30.3762 37.514 30.2878 37.1474 30.1245C31.273 27.4413 24.8628 28.0314 18.696 30.048C18.6244 30.0754 18.5482 30.1057 18.4701 30.1368L18.4701 30.1368C18.1847 30.2504 17.8746 30.3739 17.6741 30.3968C16.8198 30.4945 16.205 29.8778 16.1234 29.1644C16.0197 28.2572 16.5076 27.7642 17.1521 27.5478C24.183 25.129 31.5708 24.4272 38.2892 27.4689C38.8657 27.751 39.218 28.023 39.3097 28.8245C39.4013 29.6259 38.8394 30.2523 38.126 30.3339ZM28.5 33.8322C23.5815 33.8322 19.4186 37.079 18.0193 41.5548C19.4186 46.0306 23.5815 49.2774 28.5 49.2774C33.4185 49.2774 37.5813 46.0306 38.9806 41.5548C37.5813 37.079 33.4185 33.8322 28.5 33.8322ZM31.6066 44.6752C32.4306 43.8476 32.8934 42.7252 32.8934 41.5548C32.8934 40.3844 32.4306 39.262 31.6066 38.4344C30.7827 37.6068 29.6652 37.1419 28.5 37.1419C27.3347 37.1419 26.2172 37.6068 25.3933 38.4344C24.5694 39.262 24.1065 40.3844 24.1065 41.5548C24.1065 42.7252 24.5694 43.8476 25.3933 44.6752C26.2172 45.5028 27.3347 45.9677 28.5 45.9677C29.6652 45.9677 30.7827 45.5028 31.6066 44.6752Z" fill="white"/>
</svg>
